<svg viewBox="0 0 512 512" xmlns="http://www.w3.org/2000/svg"><defs><filter x="0%" y="0%" width="100%" height="100%" filterUnits="objectBoundingBox" id="a"><feOffset in="SourceAlpha" result="shadowOffsetOuter1"/><feColorMatrix values="0 0 0 0 0 0 0 0 0 0 0 0 0 0 0 0 0 0 0.3 0" in="shadowOffsetOuter1" result="shadowMatrixOuter1"/><feMerge><feMergeNode in="shadowMatrixOuter1"/><feMergeNode in="SourceGraphic"/></feMerge></filter></defs><g fill-rule="nonzero" fill="none"><path d="M423.5 145c31.204 0 56.5-25.296 56.5-56.5S454.704 32 423.5 32 367 57.296 367 88.5s25.296 56.5 56.5 56.5z" fill="#000"/><g filter="url(#a)" transform="translate(9 9)"><path d="M207 159c114.323 0 207-79.5 207-79.5S321.323 0 207 0 0 79.5 0 79.5 92.677 159 207 159z" fill="#0FF" style="mix-blend-mode:multiply"/><path d="M323.5216 281.9311c80.7378-80.7377 89.9623-202.415 89.9623-202.415s-121.6773 9.2245-202.415 89.9623c-80.7378 80.7377-89.9623 202.415-89.9623 202.415s121.6773-9.2245 202.415-89.9623z" fill="#FF0" style="mix-blend-mode:multiply"/><path d="M493.5 286.5c0-114.323-79.5-207-79.5-207s-79.5 92.677-79.5 207 79.5 207 79.5 207 79.5-92.677 79.5-207z" fill="#F0F" style="mix-blend-mode:multiply"/></g></g></svg>