<svg height="512" viewBox="0 0 512 512" width="512" xmlns="http://www.w3.org/2000/svg" xmlns:xlink="http://www.w3.org/1999/xlink"><filter id="a" height="100%" width="100%" x="0%" y="0%"><feOffset dx="0" dy="0" in="SourceAlpha" result="shadowOffsetOuter1"/><feColorMatrix in="shadowOffsetOuter1" result="shadowMatrixOuter1" type="matrix" values="0 0 0 0 0   0 0 0 0 0   0 0 0 0 0  0 0 0 0.3 0"/><feMerge><feMergeNode in="shadowMatrixOuter1"/><feMergeNode in="SourceGraphic"/></feMerge></filter><g fill="none" fill-rule="nonzero"><path d="m434 144c35.898509 0 65-29.101491 65-65 0-35.8985087-29.101491-65-65-65s-65 29.1014913-65 65c0 35.898509 29.101491 65 65 65z" fill="#000"/><g filter="url(#a)" transform="translate(-26 -26)"><path d="m252.849285 316.021385c131.552878 0 238.197556-91.48167 238.197556-91.48167s-106.644678-91.48167-238.197556-91.48167-238.1975561 91.48167-238.1975561 91.48167 106.6446781 91.48167 238.1975561 91.48167z" fill="#0ff" transform="matrix(.8660254 -.5 .5 .8660254 -78.394477 156.50726)"/><path d="m290.319377 422.716494c131.388872 0 237.900598-149.035871 237.900598-149.035871s-106.511726-149.035872-237.900598-149.035872-237.9005976 149.035872-237.9005976 149.035872 106.5117256 149.035871 237.9005976 149.035871z" fill="#ff0" transform="matrix(.70710678 -.70710678 .70710678 .70710678 -108.488848 285.445999)"/><path d="m340.035642 403.207742c131.552877 0 238.197556-91.481671 238.197556-91.481671s-106.644679-91.48167-238.197556-91.48167c-131.552878 0-238.197556 91.48167-238.197556 91.48167s106.644678 91.481671 238.197556 91.481671z" fill="#f0f" transform="matrix(.5 -.8660254 .8660254 .5 -99.944876 450.34254)"/></g></g></svg>