<?xml version="1.0" encoding="UTF-8"?>
<svg width="306px" height="391px" viewBox="0 0 306 391" version="1.1" xmlns="http://www.w3.org/2000/svg" xmlns:xlink="http://www.w3.org/1999/xlink">
    <!-- Generator: Sketch 52.4 (67378) - http://www.bohemiancoding.com/sketch -->
    <title>hero-3</title>
    <desc>Created with Sketch.</desc>
    <g id="Sited" stroke="none" stroke-width="1" fill="none" fill-rule="evenodd">
        <g id="Scene" transform="translate(-212.000000, -525.000000)">
            <g id="hero-3" transform="translate(374.238389, 717.691224) rotate(-10.000000) translate(-374.238389, -717.691224) translate(231.738389, 517.691224)">
                <g id="Head/Front/Airy" transform="translate(74.410048, 0.138156)">
                    <g id="Head" stroke-width="1" transform="translate(53.117647, 29.211538)" fill="#B28B67">
                        <polygon id="Neck" points="8.99725783e-17 68.7884615 9.56480582 24.5 16.4631892 24.5 22.7647059 68.7884615"></polygon>
                        <path d="M33.9196976,46.421335 C26.8158986,48.240424 -0.421884591,34.3244325 1.00238343,14.1586008 C2.42665146,-6.00723093 30.6835327,-1.57100489 36.1800812,8.60697525 C41.6766296,18.7849554 41.0234967,44.6022461 33.9196976,46.421335 Z"></path>
                    </g>
                    <path d="M76.3224232,26.0880304 C73.3221009,25.5992376 65.2436007,25.2631789 63.7537809,25.2633959 C62.8017158,25.2633959 61.7699672,25.4794801 61.2060869,24.6110212 C60.7443146,23.8998526 60.9134787,22.6970707 60.7756655,21.8717853 C60.6156454,20.9130745 60.3883515,19.9667298 60.1584451,19.0227717 C59.5042133,16.3366891 58.514919,13.7812115 57.1306908,11.3819394 C54.5333578,6.88061937 50.728363,3.35471554 45.9247122,1.30300052 C40.6201005,-0.96241222 34.6174964,-1.48114444 28.911637,-1.02164011 C22.8056186,-0.530026892 17.278285,1.47244003 11.5132073,3.35688506 C6.01940182,5.15259673 0.265209866,5.85942633 -5.48070894,4.98250636 C-11.2699529,4.09907784 -15.6442709,0.981911565 -20.5273875,-1.9766628 C-25.5263282,-5.00552961 -31.2391544,-6.98651828 -37.1487944,-6.53113604 C-42.6652423,-6.10591013 -47.749527,-3.84310082 -52.3110794,-0.820308663 C-56.578935,2.00787755 -60.1004657,5.41055265 -62.0886337,10.199551 C-64.2274601,15.3510761 -64.2255007,21.005713 -60.7083243,25.5584506 C-55.6103236,32.1576964 -46.1460603,33.8642408 -38.2722008,33.6945843 C-33.717833,33.596739 -29.2448904,32.7708027 -24.9450307,31.2684102 C-19.2106507,29.2646415 -14.255253,25.868475 -8.89055209,23.1129677 C-6.37290261,21.8199338 -3.77056222,20.7579538 -1.04281833,19.992981 C1.60415351,19.2503544 4.21128362,18.9097397 6.60788388,20.4982622 C9.14316823,22.1787724 11.4150181,23.8295601 14.3154096,24.8815604 C17.0977998,25.890821 20.0449998,26.4553301 23.0093992,26.4325502 C28.7770895,26.388292 34.4627014,24.602994 40.0644933,23.4071546 C44.6325771,22.4321723 49.5202657,21.4604443 54.1773947,22.397677 C56.1207136,22.7888414 58.9592741,23.5963367 59.6611854,25.6027088 C47.8477836,27.7297062 43.2080826,42.2437947 46.53846,52.8985241 C48.3359102,58.6492707 59.1406302,65.3718326 63.3416476,62.3485783 C66.0031129,60.4332597 64.3873299,57.9187933 63.3416476,56.2588936 C61.3391104,53.0801129 60.6539631,48.9968594 64.3594624,46.7837321 C67.5557277,44.8749885 70.9163805,49.4077481 70.9799531,49.4027582 C71.8584308,49.3339844 79.4492411,45.0692065 84.6791713,38.8458139 C89.8385168,39.1496483 90.6212642,35.7700231 89.3893135,33.0061248 C88.1573629,30.2422266 80.4679233,26.7638359 76.3224232,26.0880304 Z" id="hair" fill="#101030"></path>
                </g>
                <g id="Bottom/Standing/Baggy-Pants" transform="translate(0.273968, 173.325707)">
                    <polygon id="Leg" fill="#997659" points="126.853333 0 173.317285 117.469797 204.48085 216.780609 216.786667 216.780609 169.144424 4.81349646e-13"></polygon>
                    <path d="M117.497074,0 C117.0023,41.2796932 109.786668,96.8560999 108.633854,99.4292659 C107.86531,101.14471 81.3339623,122.95957 29.039809,164.873845 L37.5155208,173.933701 C99.2177771,137.997468 131.496544,117.632848 134.351821,112.83984 C138.634736,105.650329 152.578432,39.4915019 163.773333,0 L117.497074,0 Z" id="Leg" fill="#B28B67"></path>
                    <g id="Accessories/Shoe/Flat-Sneaker" transform="translate(48.753333, 178.719665) rotate(50.000000) translate(-48.753333, -178.719665) translate(19.880000, 159.807531)" fill="#E4E4E4">
                        <path d="M2.50800092,24.2346094 C1.46988009,27.0203119 0.950819672,29.1089045 0.950819672,30.5003873 C0.950819672,32.2135092 1.23645941,34.7133801 1.80773888,38 C3.79679521,38 21.6727794,38 55.4356915,38 C56.8292918,33.3967819 56.0248249,30.9116526 53.0222906,30.544612 C50.0197563,30.1775714 47.5255,29.8461632 45.5395218,29.5503873 L20.6595211,18.4683207 C20.1550199,18.2436054 19.5638731,18.4704167 19.3391578,18.974918 C19.3353983,18.9833584 19.3317559,18.9918505 19.3282318,19.0003919 L17.7453502,22.8367603 C14.9657887,24.1325195 12.7071064,24.7803992 10.9693034,24.7803992 C9.5745413,24.7803992 7.65482233,24.2244261 5.21014647,23.11248 L5.21014351,23.1124865 C4.20469716,22.6551653 3.01888975,23.0995085 2.56156853,24.1049549 C2.54220197,24.1475333 2.52433511,24.1907781 2.50800092,24.2346094 Z" id="shoe"></path>
                    </g>
                    <g id="Accessories/Shoe/Flat-Sneaker" transform="translate(196.906667, 188.175732)" fill="#E4E4E4">
                        <path d="M2.50800092,24.2346094 C1.46988009,27.0203119 0.950819672,29.1089045 0.950819672,30.5003873 C0.950819672,32.2135092 1.23645941,34.7133801 1.80773888,38 C3.79679521,38 21.6727794,38 55.4356915,38 C56.8292918,33.3967819 56.0248249,30.9116526 53.0222906,30.544612 C50.0197563,30.1775714 47.5255,29.8461632 45.5395218,29.5503873 L20.6595211,18.4683207 C20.1550199,18.2436054 19.5638731,18.4704167 19.3391578,18.974918 C19.3353983,18.9833584 19.3317559,18.9918505 19.3282318,19.0003919 L17.7453502,22.8367603 C14.9657887,24.1325195 12.7071064,24.7803992 10.9693034,24.7803992 C9.5745413,24.7803992 7.65482233,24.2244261 5.21014647,23.11248 L5.21014351,23.1124865 C4.20469716,22.6551653 3.01888975,23.0995085 2.56156853,24.1049549 C2.54220197,24.1475333 2.52433511,24.1907781 2.50800092,24.2346094 Z" id="shoe"></path>
                    </g>
                    <polygon id="Pant" fill="#69A1AC" points="158.093333 206.551602 216.60156 200.208887 173.24 2.84217094e-14 120.836389 2.84217094e-14"></polygon>
                    <path d="M41.1420937,150.257357 L79.52,195.632749 C119.942622,151.533436 143.509116,122.758626 150.219482,109.30832 C156.929849,95.8580133 162.962126,59.4219067 168.316316,0 L109.319311,0 C106.394581,52.2768015 104.42311,79.63155 103.404897,82.0642454 C102.386684,84.4969408 81.6324159,107.227978 41.1420937,150.257357 Z" id="Pant" fill="#89C5CC"></path>
                </g>
                <g id="Body/Jacket-2" transform="translate(19.374347, 76.147272)">
                    <path d="M187.171875,73.4664412 L221.424864,58.4044855 C227.425189,52.417577 233.219358,47.8672497 238.807371,44.7535036 C240.478293,44.2208559 243.332986,44.0599367 240.287252,48.5142503 C237.241519,52.9685638 234.237935,57.7909866 235.45493,59.3520719 C236.671925,60.9131573 240.197294,59.1901441 241.59006,61.7287751 C242.518571,63.4211957 236.576067,65.4456842 223.762551,67.8022407 L198.109084,87.4960094 L187.171875,73.4664412 Z M48.6914236,77.6149733 L68.0625,81.463393 C48.5815779,117.814852 38.1343093,137.081147 36.7206942,139.262277 C33.5400603,144.169819 36.5076561,153.16391 37.6038736,157.90026 C30.7268198,159.503143 33.4389186,149.139069 24.7361399,151.302993 C16.7926471,153.278123 10.057523,158.34701 2.6505413,151.510807 C1.73989643,150.670336 1.07326132,148.043262 4.17811099,146.695848 C11.9134238,143.338949 23.341697,137.053223 25.1947925,134.612851 C27.7218192,131.284967 35.5540296,112.285675 48.6914236,77.6149733 Z" id="Skin" fill="#B28B67"></path>
                    <path d="M116.533027,9.34358663 L124.553801,7.23264299 C143.797506,22.9081854 154.656438,63.6631023 166.955854,68.1073875 C178.584453,72.3092794 193.987956,65.9110389 212.226597,57.4957332 L219.122101,69.8923531 C203.634072,89.9233151 168.55413,108.770694 152.997377,101.124212 C128.125363,88.8990776 118.206213,38.3300591 116.533027,9.34358663 Z" id="Coat-Back" fill="#E87613" transform="translate(167.827564, 55.048617) rotate(5.000000) translate(-167.827564, -55.048617) "></path>
                    <path d="M85.078125,107.903743 C117.853769,107.903743 141.962846,107.903743 157.405356,107.903743 C160.710341,107.903743 160.08758,103.125346 159.609824,100.714141 C154.095946,72.8859178 132.571858,42.8884398 132.571858,3.27566451 L111.70928,0 C94.4532475,27.7884385 88.4858124,62.0016328 85.078125,107.903743 Z" id="Shirt" fill="#DDE3E9"></path>
                    <path d="M77.8642133,79.7287221 C63.1198212,106.358857 50.7263617,125.53128 40.6838349,137.245989 L25.5234375,134.272787 C35.2890759,73.6307432 63.5690615,28.8731476 110.363394,3.08153982e-14 L110.601562,2.25746027e-14 L118.623861,0 C137.352888,63.9253463 142.516149,106.518929 134.113645,127.780749 L69.0078125,127.780749 C70.0378516,112.223159 73.3405543,95.7704398 77.8642147,79.7287188 Z" id="Coat-Front" fill="#FF9B21"></path>
                </g>
            </g>
        </g>
    </g>
</svg>