<?xml version="1.0" encoding="UTF-8"?>
<svg width="354px" height="424px" viewBox="0 0 354 424" version="1.1" xmlns="http://www.w3.org/2000/svg" xmlns:xlink="http://www.w3.org/1999/xlink">
    <!-- Generator: Sketch 52.4 (67378) - http://www.bohemiancoding.com/sketch -->
    <title>hero-2</title>
    <desc>Created with Sketch.</desc>
    <g id="Sited" stroke="none" stroke-width="1" fill="none" fill-rule="evenodd">
        <g id="Scene" transform="translate(-49.000000, -40.000000)">
            <g id="hero-2" transform="translate(200.190859, 200.561880) rotate(-17.000000) translate(-200.190859, -200.561880) translate(29.190859, -24.938120)">
                <g id="Head/Front/Short-2" transform="translate(123.130826, 71.352513) scale(-1, 1) rotate(12.000000) translate(-123.130826, -71.352513) translate(49.630826, 14.852513)">
                    <g id="Head" stroke-width="1" transform="translate(60.529412, 33.682692)" fill="#B28B67">
                        <polygon id="Neck" points="1.02526892e-16 79.3173077 10.8994299 28.25 18.7603784 28.25 25.9411765 79.3173077"></polygon>
                        <path d="M38.6526787,53.5266414 C30.5576518,55.6241623 -0.480752208,39.5781722 1.14225089,16.3257336 C2.76525399,-6.92670505 34.9649559,-1.81146482 41.2284646,9.92436942 C47.4919732,21.6602037 46.7477056,51.4291205 38.6526787,53.5266414 Z"></path>
                    </g>
                    <path d="M67.4666642,76.3918247 C64.2107913,61.8310561 54.9353405,51.9054682 56.3519243,45.3974273 C57.2963135,41.0587334 59.8133939,38.360652 63.9031654,37.3031831 C66.0183565,28.7014577 72.8402819,25.0428086 84.3689414,26.3272358 C101.661931,28.2538767 112.216609,35.4730455 107.658565,51.3583673 C103.468651,51.3583673 98.410529,49.8351586 91.4161978,52.4449058 C89.1969247,53.272968 87.6096356,55.8408618 86.6543304,60.1485869 L83.4936197,60.1485869 C80.4260169,55.0364948 77.4013409,53.1579405 74.4195917,54.5129239 C71.4378424,55.8679073 70.7600424,59.1591674 72.3861914,64.3867043 L70.8292219,76.3918247 L67.4666642,76.3918247 Z" id="Hair" fill="#101030"></path>
                </g>
                <g id="Bottom/Standing/Jogging" transform="translate(179.500000, 321.500000) scale(-1, 1) translate(-179.500000, -321.500000) translate(17.000000, 192.000000)">
                    <polygon id="Leg" fill="#997659" points="140.833333 0 221.331947 134.622466 281.682748 248.434414 294.681775 248.434414 193.563162 5.51635214e-13"></polygon>
                    <g id="Accessories/Shoe/Flat-Sneaker" transform="translate(270.833333, 215.652720)" fill="#E4E4E4">
                        <path d="M2.96094256,27.1399147 C1.70829233,30.4342817 1.08196721,32.8921755 1.08196721,34.5135961 C1.08196721,36.4521288 1.40700553,39.2809301 2.05708217,43 C4.3204911,43 24.6621283,43 63.0819937,43 C64.6678149,37.7910953 63.7523869,34.9789753 60.33571,34.5636399 C56.919033,34.1483045 54.0807414,33.7732899 51.8208352,33.4385961 L23.3766332,20.8396842 C22.8716664,20.6160171 22.2809919,20.8440556 22.0573248,21.3490224 C22.0541301,21.3562349 22.0510209,21.363485 22.0479978,21.3707711 L20.1929847,25.8415972 C17.0300354,27.3078511 14.4598108,28.040978 12.4823107,28.040978 C10.8456283,28.040978 8.57370805,27.3719638 5.66655006,26.0339355 L5.66654949,26.0339367 C4.66315575,25.5721217 3.47536936,26.011158 3.01355433,27.0145517 C2.99460141,27.0557311 2.97705402,27.0975429 2.96094256,27.1399147 Z" id="shoe"></path>
                    </g>
                    <path d="M264.921645,230.2097 L289.990039,222.623926 C279.006892,189.779676 265.545487,153.635783 249.605822,114.192247 C233.666157,74.7487113 216.54755,36.6846289 198.25,2.84217094e-14 L127.447746,2.84217094e-14 C147.790686,46.4043711 169.356931,88.568699 192.146481,126.492984 C214.93603,164.417268 239.194418,198.989507 264.921645,230.2097 Z" id="Pant" fill="#DB2721"></path>
                    <path d="M135.543014,2.84217094e-14 C127.945456,47.307259 113.291849,107.747759 111.908943,109.612971 C110.987006,110.856445 77.797039,121.98163 12.3390414,142.988525 L15.1469881,154.454962 C93.2054966,143.188829 134.335674,134.448098 138.537519,128.232772 C144.840287,118.909783 176.310859,45.2579602 188.5,2.84217094e-14 L135.543014,2.84217094e-14 Z" id="Leg" fill="#B28B67"></path>
                    <path d="M35.3486334,133.076668 L40.2945258,151.544193 C98.6777422,156.666413 134.450428,152.965288 147.612584,140.440817 C160.77474,127.916347 175.775713,81.1027409 192.615502,-1.13686838e-13 L125.101325,-1.13686838e-13 C114.432031,66.4122319 108.467201,101.012304 107.206836,103.800216 C105.94647,106.588128 81.993736,116.346945 35.3486334,133.076668 Z" id="Pant" fill="#FF4133"></path>
                    <g id="Accessories/Shoe/Flat-Sneaker" transform="translate(26.541667, 166.887029) rotate(80.000000) translate(-26.541667, -166.887029) translate(-6.500000, 145.213389)" fill="#E4E4E4">
                        <path d="M2.96094256,27.1399147 C1.70829233,30.4342817 1.08196721,32.8921755 1.08196721,34.5135961 C1.08196721,36.4521288 1.40700553,39.2809301 2.05708217,43 C4.3204911,43 24.6621283,43 63.0819937,43 C64.6678149,37.7910953 63.7523869,34.9789753 60.33571,34.5636399 C56.919033,34.1483045 54.0807414,33.7732899 51.8208352,33.4385961 L23.3766332,20.8396842 C22.8716664,20.6160171 22.2809919,20.8440556 22.0573248,21.3490224 C22.0541301,21.3562349 22.0510209,21.363485 22.0479978,21.3707711 L20.1929847,25.8415972 C17.0300354,27.3078511 14.4598108,28.040978 12.4823107,28.040978 C10.8456283,28.040978 8.57370805,27.3719638 5.66655006,26.0339355 L5.66654949,26.0339367 C4.66315575,25.5721217 3.47536936,26.011158 3.01355433,27.0145517 C2.99460141,27.0557311 2.97705402,27.0975429 2.96094256,27.1399147 Z" id="shoe"></path>
                    </g>
                </g>
                <g id="Body/Long-Sleeve" transform="translate(165.500000, 195.000000) scale(-1, 1) rotate(21.000000) translate(-165.500000, -195.000000) translate(27.000000, 94.000000)">
                    <path d="M207.75,70.5496233 L250.471706,64.7319962 C259.01778,59.9864671 266.879754,56.7738268 274.057627,55.0940755 C276.077555,55.0351986 279.290873,55.7682611 274.50392,59.7522447 C269.716968,63.7362283 264.85993,68.143346 265.71282,70.2695285 C266.56571,72.395711 271.017515,71.6046287 271.755003,74.8748782 C272.246662,77.0550445 265.021653,77.4092997 250.079977,75.937644 L215.414973,89.657754 L207.75,70.5496233 Z" id="Arm" fill="#997659"></path>
                    <path d="M133.61068,10.453014 L152.19898,10.0652387 C160.346943,50.7754924 187.410233,74.5722556 242.147937,60.9255942 L254.153813,113.218947 C202.85992,124.451375 155.547295,107.696508 141.310912,52.3705319 C137.625562,38.0483846 134.396338,23.09038 133.61068,10.453014 Z" id="Clothes-Back" fill="#AFB9C5" transform="translate(193.882247, 63.292104) rotate(5.000000) translate(-193.882247, -63.292104) "></path>
                    <path d="M85.316597,84.7099684 C55.7682081,134.760825 39.5150873,161.660395 36.5572349,165.408678 C34.3882103,168.157335 21.1830797,175.101739 12.2626542,178.777208 C8.68211643,180.252492 9.39381246,183.265574 10.4197938,184.243724 C18.7648962,192.199782 26.5738935,186.549267 35.7055848,184.455699 C45.710137,182.162015 42.4027326,193.940264 50.30637,192.250025 C49.1442026,186.819891 45.9231629,176.490318 49.6601232,170.951719 C51.3209945,168.490119 70.9256331,141.413876 108.474039,89.7229895 L85.316597,84.7099684 Z" id="Arm" fill="#B28B67" transform="translate(59.030388, 138.563320) rotate(-12.000000) translate(-59.030388, -138.563320) "></path>
                    <path d="M95.21875,120.983957 L180.699219,120.983957 C172.800418,85.4994263 157.400494,54.7068116 157.400494,6.44377469 L129.217491,0 C108.952719,31.1569845 99.2205973,69.5175409 95.21875,120.983957 Z" id="Clothes-Body" fill="#C5CFD6"></path>
                    <path d="M95.21875,120.983957 L120.216318,120.983957 C114.269468,97.3276032 114.384442,58.799974 120.561241,5.40106952 C102.597435,36.558054 98.7662071,69.5175409 95.21875,120.983957 Z" id="Clothes-Body" fill-opacity="0.1" fill="#000000"></path>
                    <path d="M127.437176,0 C85.9458626,37.4444951 58.7601023,90.3749764 45.8798949,158.791444 L102.719651,158.791444 C104.242637,101.183444 111.995145,50.332134 134.633425,6.23751305 L129.278015,0 L127.437176,0 Z" id="Clothes-Front" fill="#C5CFD6"></path>
                </g>
            </g>
        </g>
    </g>
</svg>