<svg height="962" viewBox="0 0 696 962" width="696" xmlns="http://www.w3.org/2000/svg"><g fill="none" fill-rule="evenodd" transform="matrix(.99026807 -.1391731 .1391731 .99026807 -112 -32.496558)"><path d="m20.5949327 85.8936811c-11.48589215-13.46987-19.25978421-29.9773814-17.96076228-48.4745219 3.74284388-53.2954124 77.99929938-41.57110068 92.44371728-14.6721532 14.4444183 26.8989475 12.7280453 95.130359-5.9400776 99.937951-7.4448218 1.917261-23.3045057-2.779261-39.4459638-12.499618l10.1316831 71.612738h-59.8235294z" fill="#915b3c" transform="matrix(.8480481 .52991926 -.52991926 .8480481 539.49249246273 137.25901300504)"/><path d="m237.815026 96.8801978c1.932245-1.913073 2.986238-4.6436625 3.897986-7.2364711.946851-2.6934185 1.866858-5.4145913 2.495492-8.2180363 1.256119-5.601438 1.26805-12.0431909-2.731573-16.3927061-3.207637-3.4878889-8.020583-5.0522969-12.462544-5.3922886-2.959395-.2267438-5.998861.1873424-8.835741 1.1190981-2.814626.9243216-5.24083 2.7665216-7.969421 3.9099049-.10416-6.03634-1.139111-12.3524546-4.204272-17.5066003-2.94953-4.9591213-7.652121-7.7419982-13.007666-8.478234-5.496871-.7555647-10.924915.5295644-15.845922 3.1882898-1.232029.6658584-2.452588 1.3634362-3.620607 2.1529505-.978053.6611501-1.994879 1.4573553-3.142479 1.7262263-1.279292.3000947-1.913432-.4381235-2.74488-1.3706227-.974841-1.0933261-2.073114-2.0563056-3.235397-2.9100021-5.139193-3.7741064-11.88209-5.3258762-17.835983-3.0636426-2.743274 1.0422778-5.410836 2.812366-7.271959 5.251534-1.658995 2.174262-2.842386 5.6232451-5.13208 7.1380917-.971629.6430601-1.657849-.2089017-2.542524-.8385802-1.328849-.9461286-2.596211-1.9901411-3.941119-2.9104977-1.889113-1.2930589-3.934466-2.2602512-6.124817-2.7665216-3.20649-.7411919-7.637667-.5674789-8.554463 3.6283957-.344142 1.5760549-.0803 3.2616407.030973 4.8495904.15257 2.1804572.311793 4.3601709.501301 6.5374066.143851 1.653123.325788 3.249746.63804 4.8731321.166565.8653434.687826 2.4785695.316382 3.3451519-.464134 1.083166-2.606306.4673647-3.521495.5050314-1.807665.07459-3.622902.3912879-5.294287 1.1629601-1.295352.598207-2.657238 1.4779232-3.203965 2.9612982-.336113.9111877-.247553 1.8471562-.088789 2.7846115.190425 1.1250455-.027302 1.7217657-.169548 2.8569713-2.42781-1.1944315-10.8409441-3.8482008-11.8995261.4988363-.3524018 1.4474429.4501383 3.0829716 1.0624823 4.3036708 1.0739537 2.1410558 2.481955 4.0979907 3.9213879 5.9642281 3.0025279 3.8933018 6.5871149 7.2513396 10.4438039 10.1231793-4.518589 2.0069925-5.69808 7.9268625-1.785869 11.4539055 1.727365 1.557221 4.049867 1.903904 6.228748 1.804285.797492-.036428 1.947157-.342718 2.574644-.203945.337718.07459.699297.360559 1.167101.392527 3.075027.210388 6.546277-.529813 9.552246-1.211531 5.356232-1.214752 10.427056-3.750069 14.568007-7.611404 1.062253-.990486 1.939816-1.56069 3.369613-1.54607 1.252908.012638 2.482184.355852 3.733945.387571 3.312026.084502 6.298265-1.533184 9.373751-2.6099074.18836 4.1510214 1.371522 8.7228194 3.071126 12.4572774 1.385976 3.045305 4.280214 3.487889 7.124207 3.755025 9.094536.854935 18.221193-.099123 27.327201-.086485-8.814864 1.990637-17.923625 2.811127-26.660253 5.15365-3.949149 1.058633-.933544 3.717854.755048 5.561294 2.780441 3.03564 4.84782 6.79686 6.281746 10.7593 4.312104-5.61581 11.933941-9.31607 18.686474-7.590835 7.461007 1.905886 12.714685 11.986443 7.943724 19.23357-2.769887 4.207026-7.771883 5.831155-11.933941 7.638662 3.246869 3.372659 4.032202 8.353835 5.986472 12.54971.963828 2.069191 2.316767 4.408741 4.472245 5.12986.797493.266889 1.732643.289687 2.361735.93919.779368.804135.964975 1.70318 1.960235 2.394315 3.971403 2.758592 10.174914 2.545973 13.695032-1.053925 3.183317-3.255693 2.355081-8.407609-.303534-11.708403 4.232034-1.762406 11.942201-4.0291 10.260262-10.616316 9.170248-.608367 31.435343-15.467393 19.127435-26.325322 6.754597-3.814003 12.960173-13.13503 8.621455-21.351579-3.340934-6.327018-11.110752-9.155244-17.485646-9.4907752" fill="#191847" transform="matrix(-.8480481 -.52991926 -.52991926 .8480481 762.19735410928 185.38561375472)"/><g transform="translate(0 482)"><path d="m242.545485 244.194159c59.733476 16.704439 111.269714 25.056659 154.608714 25.056659s83.594267-12.86227 120.765801-38.58681c-58.45464-17.145586-106.59464-25.718379-144.42-25.718379s-81.476865 13.082843-130.954515 39.24853z" fill="#1f28cf"/><path d="m448.86442 293.328346c-.575973-.865718-1.062384-1.807445-1.448194-2.827559-7.984421-21.111454-135.875182-248.8619063-148.616226-290.500787h143.986957c9.687196 31.658629 53.288317 230.331619 59.424431 269.969809 19.360566 62.524952 59.222036 265.020444 64.31068 279.048713 5.353168 14.757501-24.76733 30.131001-32.793733 11.988484-12.771364-28.867808-43.2017-108.744514-56.751068-157.516674-12.702504-45.723795-23.045734-86.859461-28.112847-110.161986z" fill="#784931"/><path d="m331.063084 321.134683c-58.469554 14.775116-272.3388525 41.485911-287.0155004 45.675432-15.0976918 4.309709-28.3354786-26.804264-9.6739162-33.544078 29.6936967-10.724182 111.5132716-35.502863 161.1207756-45.614553 39.901272-8.133231 76.311672-14.769937 100.756656-18.656319-2.070922-68.653337-11.537637-233.4108152-5.332727-268.995165h127.401628c-5.950091 34.1229987-56.24882 283.104769-65.597557 308.02714-2.966831 8.897454-11.819235 12.829472-21.659359 13.107543z" fill="#915b3c"/><path d="m7.85951905 60.4263527c-3.57847718 9.0255805-5.36771577 15.6381886-5.36771577 19.8378244 0 4.5082155.7485731 11.0868231 2.2457193 19.7358229h140.54222042c3.652194-12.1137319 1.543936-18.6535459-6.324775-19.6194421-7.86871-.9658962-14.405382-1.8380232-19.610014-2.6163808l-66.7226682-29.8431444c-.5041539-.2254937-1.09565.0004051-1.3211436.5045589-.0041813.0093485-.0082187.0187606-.0121109.0282331l-4.7839757 11.6429129c-7.284368 3.4098928-13.2036732 5.1148392-17.7579157 5.1148392-4.2166214 0-10.2640265-1.9470088-18.1422151-5.8410264l-.0000026.0000053c-.99020996-.4894393-2.18970265-.0834845-2.67914193.9067255-.02410529.0487686-.04621075.0985005-.06626122.1490715z" fill="#e4e4e4" transform="matrix(.17364818 .98480775 -.98480775 .17364818 96.85165 307.420435)"/><path d="m7.85951905 60.4263527c-3.57847718 9.0255805-5.36771577 15.6381886-5.36771577 19.8378244 0 4.5082155.7485731 11.0868231 2.2457193 19.7358229h140.54222042c3.652194-12.1137319 1.543936-18.6535459-6.324775-19.6194421-7.86871-.9658962-14.405382-1.8380232-19.610014-2.6163808l-66.7226682-29.8431444c-.5041539-.2254937-1.09565.0004051-1.3211436.5045589-.0041813.0093485-.0082187.0187606-.0121109.0282331l-4.7839757 11.6429129c-7.284368 3.4098928-13.2036732 5.1148392-17.7579157 5.1148392-4.2166214 0-10.2640265-1.9470088-18.1422151-5.8410264l-.0000026.0000053c-.99020996-.4894393-2.18970265-.0834845-2.67914193.9067255-.02410529.0487686-.04621075.0985005-.06626122.1490715z" fill="#e4e4e4" transform="translate(517.92 495.41841)"/><path d="m291.33 0c56.14163-16.0593713 109.26163-16.0593713 159.36 0 17.43 79.5095966 59.78226 111.067017 67.23 232.968455-84.66 42.057783-189.24-29.995141-276.39 11.019662-24.9-57.369461 9.96-195.5304255 49.8-243.988117z" fill="#2b44ff"/></g><g transform="matrix(.93358043 .35836795 -.35836795 .93358043 199.947641 155.592916)"><path d="m482.07908 221.614801 70.377137 68.718106c20.477153 8.742524 37.255263 18.396036 50.33433 28.960536 2.941286 3.551088 6.143355 10.355157-7.695251 7.310434-13.838606-3.044724-28.531551-5.624377-31.132491-1.119874s5.062943 11.407003.256083 17.302238c-3.204574 3.930157-13.981808-8.570903-32.331701-37.503179l-73.182915-43.186019zm-312.376571 9.691346 51.916957.204351c-32.056325 103.577302-49.361978 158.53477-51.916957 164.872403-5.748704 14.259675 6.416326 35.976913 11.618575 47.647595-16.943553 7.58862-15.138199-20.515138-36.512035-10.56224-19.509047 9.084544-34.34953 25.54513-56.8894146 11.6247-2.7711464-1.711435-5.8078713-8.155297 1.52924-13.190835 18.2794196-12.54536 44.6211716-34.502 48.1803576-41.729198 4.853585-9.855576 15.544677-62.811168 32.073277-158.866776z" fill="#915b3c"/><path d="m303.127918 22.9480682 21.07951-5.546398c44.905517 88.9029108 116.557436 166.9835058 214.955757 234.2417858l-61.996342 90.433077c-101.179644-99.172386-167.442356-204.826782-174.038925-319.1284648z" fill="#191847" transform="matrix(.9961947 .08715574 -.08715574 .9961947 17.267881 -36.021292)"/><path d="m223.59375 283.475936h191.296875c-44.31909-107.857255-66.478635-199.4807143-66.478635-274.87037671l-57.704817-8.60555929c-45.350564 73.003525-58.157683 162.885646-67.113423 283.475936z" fill="#dde3e9"/><path d="m289.485424.04083015c.007576-.01361242.015152-.02722247.022727-.04083015h3.766733c4.507223.15534764 11.372301.43523725 20.595236.83966884l13.943554 39.88358906c1.474919 48.6274193 10.088221 146.6247901 25.839907 293.9921121h-125.398941c.328733 10.178053.870759 20.451183 1.626081 30.819389h-93.240096c13.947074-157.493353 64.880043-279.3382727 152.798907-365.534759l.045892.04083013z" fill="#2f3676"/><path d="m236.537915 204.48338c3.568838 63.445871 12.504116 107.18314 26.805835 131.211807h-35.056814c-1.534775-45.647447 1.215552-89.384665 8.250977-131.21179z" fill="#000" fill-opacity=".1"/><path d="m256.16614 258.609626 61.83386-28.772132v28.772132z" fill="#fff" fill-opacity=".2"/></g></g></svg>