<?xml version="1.0" encoding="UTF-8"?>
<svg width="275px" height="409px" viewBox="0 0 275 409" version="1.1" xmlns="http://www.w3.org/2000/svg" xmlns:xlink="http://www.w3.org/1999/xlink">
    <!-- Generator: Sketch 52.4 (67378) - http://www.bohemiancoding.com/sketch -->
    <title>hero-4</title>
    <desc>Created with Sketch.</desc>
    <g id="Sited" stroke="none" stroke-width="1" fill="none" fill-rule="evenodd">
        <g id="hero-4" transform="translate(111.481237, 226.146241) rotate(-160.000000) translate(-111.481237, -226.146241) translate(-31.018763, 25.646241)">
            <g id="Head/Front/Wavy" transform="translate(69.486009, 0.269915)">
                <g id="Head" stroke-width="1" transform="translate(53.117647, 29.211538)" fill="#B28B67">
                    <polygon id="Neck" points="8.99725783e-17 68.7884615 9.56480582 24.5 16.4631892 24.5 22.7647059 68.7884615"></polygon>
                    <path d="M33.9196976,46.421335 C26.8158986,48.240424 -0.421884591,34.3244325 1.00238343,14.1586008 C2.42665146,-6.00723093 30.6835327,-1.57100489 36.1800812,8.60697525 C41.6766296,18.7849554 41.0234967,44.6022461 33.9196976,46.421335 Z"></path>
                </g>
                <path d="M91.4468632,42.3884232 C91.2213678,41.0691455 90.670271,39.604102 90.225601,38.3559414 C89.6523075,36.7468979 88.7847233,35.296142 87.8299691,33.9288643 C86.0324734,31.3546836 83.8761547,29.030135 81.4953696,27.1008239 C77.1465708,23.5767569 71.6107603,21.5440612 66.1669708,22.2041816 C63.4183958,22.5374525 60.750229,23.5790044 58.4792516,25.3126232 C56.4274488,26.8789644 54.4538491,29.1847304 51.7970011,29.3504026 C48.9061318,29.530523 46.2561927,26.9956734 43.9377349,25.4301349 C41.3236634,23.6652118 38.5427488,22.3791649 35.4875353,21.8792585 C30.3693471,21.0420678 25.5611785,22.7599542 22.0338063,26.9316199 C18.2802037,31.3708977 15.5516205,37.8810785 18.0166357,43.7630855 C18.4748295,44.8564902 19.0642928,45.7782829 19.9102683,46.5422695 C20.6861255,47.2428448 21.8710791,47.9882094 22.1856556,49.1076208 C22.5197828,50.2975071 21.5216641,51.832544 21.1346175,52.9062029 C20.5801397,54.4444504 20.1248859,56.0591127 20.286731,57.731086 C20.552651,60.4768788 22.2895834,63.0980962 24.1236817,64.9028321 C25.9901196,66.7393539 28.2872627,67.7924643 30.7408119,68.2779225 C32.3791084,68.6020429 34.0534195,68.7808791 35.7184697,68.6591935 C36.5450414,68.5988322 37.2744471,68.3707118 38.0752941,68.1893071 C38.8540913,68.012879 39.2893534,68.218364 39.9501109,68.6426583 C43.0195832,70.6140297 46.31999,71.376732 49.8642669,71.0835949 C52.8555361,70.8360497 56.3032352,70.1158892 58.7434076,68.0798222 C61.453322,65.8185244 61.3993736,62.7002902 60.7616948,59.3687048 C61.4372992,59.7013336 63.3063831,59.9073001 62.1894897,58.5814405 C61.7470247,58.0563302 60.9110451,57.8426579 60.3433376,57.5337883 C59.682286,57.1741897 59.0110916,56.7094405 58.4977734,56.1228451 C56.4250968,53.7543099 58.5185002,48.9340823 61.1236047,48.1397545 C64.994071,46.9596608 65.8606262,52.3974671 68.623607,53.8040758 C70.2122181,54.6128518 71.8740343,53.5074069 73.0642799,52.3786845 C74.6586239,50.8666041 75.7452356,48.8634469 76.683379,46.8249719 C77.4561493,45.1462561 78.1752651,43.4439416 78.9628822,41.7735737 C79.3306721,40.9935335 80.6039717,38.788423 79.9645289,37.9064431 C82.7367706,37.3572524 85.8244707,38.5017073 88.2120178,40.0025502 C89.1988176,40.6230184 89.9511551,41.3070586 90.4775562,42.4023897 C90.5903039,42.6370921 90.8357911,43.3347777 91.1440466,43.363353 C91.7179282,43.4166507 91.5034576,42.7199282 91.4468632,42.3884232" id="hair" fill="#191847"></path>
            </g>
            <g id="Standing/Skinny-Jeans-Walk" transform="translate(0.273968, 174.325707)">
                <polygon id="Leg" fill="#1F28CF" points="121.173333 0 166.690619 120.306617 198.594885 208.979079 216.786667 208.979079 172.931091 9.28053543e-14"></polygon>
                <path d="M109.923741,0 C109.428966,41.2796932 109.786668,96.8560999 108.633854,99.4292659 C107.86531,101.14471 83.9606926,120.689962 36.92,158.065021 L46.2967147,173.991632 C102.144842,138.016779 131.496544,117.632848 134.351821,112.83984 C138.634736,105.650329 160.151765,39.4915019 171.346667,0 L109.923741,0 Z" id="Leg" fill="#2B44FF"></path>
                <g id="Accessories/Shoe/Flat-Pointy" transform="translate(53.486667, 178.719665) rotate(50.000000) translate(-53.486667, -178.719665) translate(24.613333, 159.807531)" fill="#191847">
                    <path d="M0,38 L0.950819672,18.05 L20.9180328,18.05 C30.3859179,24.7 42.7465736,30.0833333 58,34.2 L58,38 L21.8688525,38 L9.50819672,36.1 L9.50819672,38 L0,38 Z" id="Shoe"></path>
                </g>
                <g id="Accessories/Shoe/Flat-Pointy" transform="translate(196.906667, 188.175732)" fill="#191847">
                    <path d="M0,38 L0.950819672,18.05 L20.9180328,18.05 C30.3859179,24.7 42.7465736,30.0833333 58,34.2 L58,38 L21.8688525,38 L9.50819672,36.1 L9.50819672,38 L0,38 Z" id="Shoe"></path>
                </g>
            </g>
            <g id="Body/Trench-Coat" transform="translate(19.374347, 77.147272)">
                <g id="Right-Arm" transform="translate(174.992269, 61.736572) rotate(-4.000000) translate(-174.992269, -61.736572) translate(115.437581, -2.627065)">
                    <path d="M68.0185541,84.240175 L96.9727495,107.961581 C105.024448,110.596941 111.7042,113.700543 117.012003,117.272387 C118.2446,118.521308 119.683855,120.995093 114.337361,120.299943 C108.990867,119.604793 103.335945,119.114358 102.499332,120.908797 C101.66272,122.703235 104.796509,125.066226 103.169822,127.461257 C102.085365,129.057944 97.5859019,124.675349 89.6714329,114.31347 L60.4998643,100.366906 L68.0185541,84.240175 Z" id="Arm" fill="#B28B67" transform="translate(89.332118, 106.010606) rotate(1.000000) translate(-89.332118, -106.010606) "></path>
                    <path d="M4.70104987,8.71350314 L14.7369085,4.38704958 C31.8247436,38.2279701 55.702135,70.328277 93.143941,95.9309567 L85.8107028,111.610005 C53.5239434,96.1871799 23.229609,84.6625691 9.05865582,58.5211671 C4.3025176,49.7474369 5.33214084,19.6465978 4.70104987,8.71350314 Z" id="Clothes-Back" fill="#69A1AC" transform="translate(48.922495, 57.998527) rotate(5.000000) translate(-48.922495, -57.998527) "></path>
                    <path d="M66.9817022,98.7867742 C64.8956906,99.8689386 60.9818431,92.3051407 63.0678546,91.2229763 C68.9749835,88.1585234 76.0398381,88.089529 84.061615,90.7958326 C86.2880016,91.5469478 87.4847247,93.9630031 86.734571,96.1922431 C85.9844173,98.4214832 83.5714546,99.6197402 81.345068,98.868625 C75.3528128,96.8470202 70.6319587,96.8931234 66.9817022,98.7867742 Z" id="Sinch" fill="#69A1AC" transform="translate(74.716006, 93.967057) scale(-1, -1) translate(-74.716006, -93.967057) "></path>
                </g>
                <g id="Left-Arm" transform="translate(55.616442, 72.498537) rotate(2.000000) translate(-55.616442, -72.498537) translate(-2.992933, -12.215367)">
                    <path d="M54.5866663,84.9257883 C38.4592325,120.656143 29.1026487,140.163943 26.5169151,143.449187 C24.6207692,145.858291 13.0806278,151.947741 5.28533079,155.171437 C2.15640428,156.465385 2.77708813,159.105084 3.6731349,159.961722 C10.9613788,166.929422 17.7863486,161.975672 25.7656355,160.137909 C34.5076297,158.124481 31.6134602,168.445461 38.5196256,166.961545 C37.5062692,162.20427 34.6958917,153.155038 37.9630186,148.300882 C39.415075,146.143479 50.4671397,126.21734 71.1192127,88.5224655 L54.5866663,84.9257883 Z" id="Arm" fill="#B28B67" transform="translate(37.032649, 126.016946) rotate(-4.000000) translate(-37.032649, -126.016946) "></path>
                    <path d="M99.6905361,5.91821048 C63.4296179,38.0816144 42.6509281,84.1366459 37.3544665,144.083305 L55.8502504,146.162698 C65.5687837,94.9921077 82.7166235,64.9058007 107.29377,55.9037773 L104.719142,5.03129973 L99.6905361,5.91821048 Z" id="Clothes-Front" fill="#89C5CC" transform="translate(72.324118, 75.596999) rotate(8.000000) translate(-72.324118, -75.596999) "></path>
                    <path d="M30.8549831,131.214171 C28.7689715,132.296335 24.8551239,124.732537 26.9411355,123.650373 C32.8482643,120.58592 39.913119,120.516926 47.9348958,123.223229 C50.1612824,123.974345 51.3580056,126.3904 50.6078518,128.61964 C49.8576981,130.84888 47.4447354,132.047137 45.2183488,131.296022 C39.2260936,129.274417 34.5052395,129.32052 30.8549831,131.214171 Z" id="Sinch" fill="#89C5CC"></path>
                </g>
                <g id="Body" transform="translate(44.429688, 0.000000)">
                    <path d="M40.6484375,107.818315 C70.3674801,111.0873 93.7596267,111.0873 110.824877,107.818315 C112.939147,107.41331 112.846299,98.2874384 111.865809,95.795077 C96.5970257,56.9825227 86.5530978,28.5699131 86.5530978,1.61158721 C83.7514682,3.07689412 78.8483523,3.29648867 71.84375,2.27037088 C53.0189875,30.0517925 44.3659146,61.9277952 40.6484375,107.818315 Z" id="Clothes-Body" fill="#191847"></path>
                    <path d="M0.834534102,213.914439 C39.8278216,198.31834 72.3238333,217.839474 100.383295,211.565272 C115.564115,133.417205 71.84375,41.9127864 75.0090577,4.26325641e-14 L65.7290743,4.850468e-14 C60.5164662,12.498623 46.637951,31.2938077 39.8278216,50.1735065 C34.2174877,65.7270166 41.4872964,81.664838 38.8445328,98.0442295 C32.9734042,134.432468 2.49974554,177.79583 0.834534102,213.914439 Z" id="Clothes-Body" fill="#89C5CC"></path>
                    <ellipse id="Button" fill="#5C63AB" cx="79.40625" cy="83.2941176" rx="3.78125" ry="3.78609626"></ellipse>
                    <ellipse id="Button" fill="#5C63AB" cx="84.1328125" cy="105.064171" rx="3.78125" ry="3.78609626"></ellipse>
                    <ellipse id="Button" fill="#5C63AB" cx="85.078125" cy="126.834225" rx="3.78125" ry="3.78609626"></ellipse>
                    <polygon id="Shade-Lapel" fill-opacity="0.1" fill="#000000" points="68.1624751 0.946524064 63.2854612 15.9635497 73.1066843 27.2211268 64.2307737 36.0677789 85.7041592 72.8823529 59.4446404 36.1413289 68.1624751 27.2211268 59.4446404 17.2726049"></polygon>
                    <path d="M38.2839131,102.224818 L38.2839131,102.224818 C40.6336729,102.225333 42.5384006,104.130061 42.538915,106.479821 L42.5395388,109.32953 C42.5400529,111.67796 40.6366915,113.582154 38.2882622,113.582669 C38.2876412,113.582669 38.2870203,113.582669 38.2863994,113.582669 L38.2863994,113.582669 C35.9366396,113.582154 34.0319119,111.677425 34.0313975,109.327665 L34.0307737,106.477956 C34.0302596,104.129527 35.933621,102.225332 38.2820503,102.224818 C38.2826713,102.224818 38.2832922,102.224818 38.2839131,102.224818 Z" id="Belt" fill="#89C5CC" transform="translate(38.285156, 107.903743) rotate(10.000000) translate(-38.285156, -107.903743) "></path>
                </g>
            </g>
        </g>
    </g>
</svg>