<svg height="391" viewBox="0 0 306 391" width="306" xmlns="http://www.w3.org/2000/svg"><g fill="none" fill-rule="evenodd" transform="matrix(.98480775 -.17364818 .17364818 .98480775 -12.826351 20.474539)"><g transform="translate(74.410048 .138156)"><g fill="#b28b67" transform="translate(53.117647 29.211538)"><path d="m0 68.7884615 9.56480582-44.2884615h6.89838338l6.3015167 44.2884615z"/><path d="m33.9196976 46.421335c-7.103799 1.819089-34.34158219-12.0969025-32.91731417-32.2627342 1.42426803-20.16583173 29.68114927-15.72960569 35.17769777-5.55162555 5.4965484 10.17798015 4.8434155 35.99527085-2.2603836 37.81435975z"/></g><path d="m76.3224232 26.0880304c-3.0003223-.4887928-11.0788225-.8248515-12.5686423-.8246345-.9520651 0-1.9838137.2160842-2.547694-.6523747-.4617723-.7111686-.2926082-1.9139505-.4304214-2.7392359-.1600201-.9587108-.387314-1.9050555-.6172204-2.8490136-.6542318-2.6860826-1.6435261-5.2415602-3.0277543-7.6408323-2.597333-4.50132003-6.4023278-8.02722386-11.2059786-10.07893888-5.3046117-2.26541274-11.3072158-2.78414496-17.0130752-2.32464063-6.1060184.49161322-11.633352 2.49408014-17.3984297 4.37852517-5.49380548 1.79571167-11.24799743 2.50254127-16.99391624 1.6256213-5.78924396-.88342852-10.16356196-4.00059479-15.04667856-6.95916916-4.9989407-3.02886681-10.7117669-5.00985548-16.6214069-4.55447324-5.5164479.42522591-10.6007326 2.68803522-15.162285 5.71082738-4.2678556 2.82818621-7.7893863 6.23086131-9.7775543 11.01985966-2.1388264 5.1515251-2.136867 10.806162 1.3803094 15.3588996 5.0980007 6.5992458 14.562264 8.3057902 22.4361235 8.1361337 4.5543678-.0978453 9.0273104-.9237816 13.3271701-2.4261741 5.73438-2.0037687 10.6897777-5.3999352 16.05447861-8.1554425 2.51764948-1.2930339 5.11998987-2.3550139 7.84773376-3.1199867 2.64697184-.7426266 5.25410195-1.0832413 7.65070221.5052812 2.53528435 1.6805102 4.80713422 3.3312979 7.70752572 4.3832982 2.7823902 1.0092606 5.7295902 1.5737697 8.6939896 1.5509898 5.7676903-.0442582 11.4533022-1.8295562 17.0550941-3.0253956 4.5680838-.9749823 9.4557724-1.9467103 14.1129014-1.0094776 1.9433189.3911644 4.7818794 1.1986597 5.4837907 3.2050318-11.8134018 2.1269974-16.4531028 16.6410859-13.1227254 27.2958153 1.7974502 5.7507466 12.6021702 12.4733085 16.8031876 9.4500542 2.6614653-1.9153186 1.0456823-4.429785 0-6.0896847-2.0025372-3.1787807-2.6876845-7.2620342 1.0178148-9.4751615 3.1962653-1.9087436 6.5569181 2.624016 6.6204907 2.6190261.8784777-.0687738 8.469288-4.3335517 13.6992182-10.5569443 5.1593455.3038344 5.9420929-3.0757908 4.7101422-5.8396891-1.2319506-2.7638982-8.9213902-6.2422889-13.0668903-6.9180944z" fill="#101030"/></g><g transform="translate(.273968 173.325707)"><path d="m126.853333 0 46.463952 117.469797 31.163565 99.310812h12.305817l-47.642243-216.780609z" fill="#997659"/><path d="m117.497074 0c-.494774 41.2796932-7.710406 96.8560999-8.86322 99.4292659-.768544 1.7154441-27.2998917 23.5303041-79.594045 65.4445791l8.4757118 9.059856c61.7022563-35.936233 93.9810232-56.300853 96.8363002-61.093861 4.282915-7.189511 18.226611-73.3483381 29.421512-112.83984z" fill="#b28b67"/><path d="m2.50800092 24.2346094c-1.03812083 2.7857025-1.55718125 4.8742951-1.55718125 6.2657779 0 1.7131219.28563974 4.2129928.85691921 7.4996127h53.62795262c1.3936003-4.6032181.5891334-7.0883474-2.4134009-7.455388s-5.4967906-.6984488-7.4827688-.9942247l-24.8800007-11.0820666c-.5045012-.2247153-1.095648.002096-1.3203633.5065973-.0037595.0084404-.0074019.0169325-.010926.0254739l-1.5828816 3.8363684c-2.7795615 1.2957592-5.0382438 1.9436389-6.7760468 1.9436389-1.3947621 0-3.31448107-.5559731-5.75915693-1.6679192l-.00000296.0000065c-1.00544635-.4573212-2.19125376-.012978-2.64857498.9924684-.01936656.0425784-.03723342.0858232-.05356761.1296545z" fill="#e4e4e4" transform="matrix(.64278761 .76604444 -.76604444 .64278761 44.681447 144.444923)"/><path d="m2.50800092 24.2346094c-1.03812083 2.7857025-1.55718125 4.8742951-1.55718125 6.2657779 0 1.7131219.28563974 4.2129928.85691921 7.4996127h53.62795262c1.3936003-4.6032181.5891334-7.0883474-2.4134009-7.455388s-5.4967906-.6984488-7.4827688-.9942247l-24.8800007-11.0820666c-.5045012-.2247153-1.095648.002096-1.3203633.5065973-.0037595.0084404-.0074019.0169325-.010926.0254739l-1.5828816 3.8363684c-2.7795615 1.2957592-5.0382438 1.9436389-6.7760468 1.9436389-1.3947621 0-3.31448107-.5559731-5.75915693-1.6679192l-.00000296.0000065c-1.00544635-.4573212-2.19125376-.012978-2.64857498.9924684-.01936656.0425784-.03723342.0858232-.05356761.1296545z" fill="#e4e4e4" transform="translate(196.906667 188.175732)"/><path d="m158.093333 206.551602 58.508227-6.342715-43.36156-200.208887h-52.403611z" fill="#69a1ac"/><path d="m41.1420937 150.257357 38.3779063 45.375392c40.422622-44.099313 63.989116-72.874123 70.699482-86.324429 6.710367-13.4503067 12.742644-49.8864133 18.096834-109.30832h-58.997005c-2.92473 52.2768015-4.896201 79.63155-5.914414 82.0642454s-21.7724811 25.1637326-62.2628033 68.1931116z" fill="#89c5cc"/></g><g transform="translate(19.374347 76.147272)"><path d="m187.171875 73.4664412 34.252989-15.0619557c6.000325-5.9869085 11.794494-10.5372358 17.382507-13.6509819 1.670922-.5326477 4.525615-.6935669 1.479881 3.7607467-3.045733 4.4543135-6.049317 9.2767363-4.832322 10.8378216 1.216995 1.5610854 4.742364-.1619278 6.13513 2.3767032.928511 1.6924206-5.013993 3.7169091-17.827509 6.0734656l-25.653467 19.6937687zm-138.4804514 4.1485321 19.3710764 3.8484197c-19.4809221 36.351459-29.9281907 55.617754-31.3418058 57.798884-3.1806339 4.907542-.2130381 13.901633.8831794 18.637983-6.8770538 1.602883-4.164955-8.761191-12.8677337-6.597267-7.9434928 1.97513-14.6786169 7.044017-22.0855986.207814-.91064487-.840471-1.57727998-3.467545 1.52756969-4.814959 7.73531281-3.356899 19.16358601-9.642625 21.01668151-12.082997 2.5270267-3.327884 10.3592371-22.327176 23.4966311-56.9978777z" fill="#b28b67"/><path d="m116.533027 9.34358663 8.020774-2.11094364c19.243705 15.67554241 30.102637 56.43045931 42.402053 60.87474451 11.628599 4.2018919 27.032102-2.1963486 45.270743-10.6116543l6.895504 12.3966199c-15.488029 20.030962-50.567971 38.8783409-66.124724 31.2318589-24.872014-12.2251344-34.791164-62.7941529-36.46435-91.78062537z" fill="#e87613" transform="matrix(.9961947 .08715574 -.08715574 .9961947 5.436438 -14.417659)"/><path d="m85.078125 107.903743h72.327231c3.304985 0 2.682224-4.778397 2.204468-7.189602-5.513878-27.8282232-27.037966-57.8257012-27.037966-97.43847649l-20.862578-3.27566451c-17.2560325 27.7884385-23.2234676 62.0016328-26.631155 107.903743z" fill="#dde3e9"/><path d="m77.8642133 79.7287221c-14.7443921 26.6301349-27.1378516 45.8025579-37.1803784 57.5172669l-15.1603974-2.973202c9.7656384-60.6420438 38.045624-105.3996394 84.8399565-134.272787h.238168 8.022299c18.729027 63.9253463 23.892288 106.518929 15.489784 127.780749h-65.1058325c1.0300391-15.55759 4.3327418-32.0103092 8.8564022-48.0520302z" fill="#ff9b21"/></g></g></svg>