<svg height="424" viewBox="0 0 354 424" width="354" xmlns="http://www.w3.org/2000/svg"><g fill="none" fill-rule="evenodd" transform="matrix(.95630476 -.2923717 .2923717 .95630476 -78.267074 -5.089281)"><g transform="matrix(-.9781476 .20791169 .20791169 .9781476 183.277664 .805664)"><g fill="#b28b67" transform="translate(60.529412 33.682692)"><path d="m0 79.3173077 10.8994299-51.0673077h7.8609485l7.1807981 51.0673077z"/><path d="m38.6526787 53.5266414c-8.0950269 2.0975209-39.13343091-13.9484692-37.51042781-37.2009078 1.6230031-23.25243865 33.82270501-18.13719842 40.08621371-6.40136418 6.2635086 11.73583428 5.519241 41.50475108-2.5757859 43.60227198z"/></g><path d="m67.4666642 76.3918247c-3.2558729-14.5607686-12.5313237-24.4863565-11.1147399-30.9943974.9443892-4.3386939 3.4614696-7.0367753 7.5512411-8.0942442 2.1151911-8.6017254 8.9371165-12.2603745 20.465776-10.9759473 17.2929896 1.9266409 27.8476676 9.1458097 23.2896236 25.0311315-4.189914 0-9.248036-1.5232087-16.2423672 1.0865385-2.2192731.8280622-3.8065622 3.395956-4.7618674 7.7036811h-3.1607107c-3.0676028-5.1120921-6.0922788-6.9906464-9.074028-5.635663-2.9817493 1.3549834-3.6595493 4.6462435-2.0334003 9.8737804l-1.5569695 12.0051204z" fill="#101030"/></g><g transform="matrix(-1 0 0 1 342 192)"><path d="m140.833333 0 80.498614 134.622466 60.350801 113.811948h12.999027l-101.118613-248.434414z" fill="#997659"/><path d="m2.96094256 27.1399147c-1.25265023 3.294367-1.87897535 5.7522608-1.87897535 7.3736814 0 1.9385327.32503832 4.767334.97511496 8.4864039h61.02491153c1.5858212-5.2089047.6703932-8.0210247-2.7462837-8.4363601-3.416677-.4153354-6.2549686-.79035-8.5148748-1.1250438l-28.444202-12.5989119c-.5049668-.2236671-1.0956413.0043714-1.3193084.5093382-.0031947.0072125-.0063039.0144626-.009327.0217487l-1.8550131 4.4708261c-3.1629493 1.4662539-5.7331739 2.1993808-7.710674 2.1993808-1.6366824 0-3.90860265-.6690142-6.81576064-2.0070425l-.00000057.0000012c-1.00339374-.461815-2.19118013-.0227787-2.65299516.980615-.01895292.0411794-.03650031.0829912-.05261177.125363z" fill="#e4e4e4" transform="translate(270.833333 215.65272)"/><path d="m264.921645 230.2097 25.068394-7.585774c-10.983147-32.84425-24.444552-68.988143-40.384217-108.431679-15.939665-39.4435357-33.058272-77.5076181-51.355822-114.192247h-70.802254c20.34294 46.4043711 41.909185 88.568699 64.698735 126.492984 22.789549 37.924284 47.047937 72.496523 72.775164 103.716716z" fill="#db2721"/><path d="m135.543014 0c-7.597558 47.307259-22.251165 107.747759-23.634071 109.612971-.921937 1.243474-34.111904 12.368659-99.5699016 33.375554l2.8079467 11.466437c78.0585085-11.266133 119.1886859-20.006864 123.3905309-26.22219 6.302768-9.322989 37.77334-82.9748118 49.962481-128.232772z" fill="#b28b67"/><path d="m35.3486334 133.076668 4.9458924 18.467525c58.3832164 5.12222 94.1559022 1.421095 107.3180582-11.103376 13.162156-12.52447 28.163129-59.3380761 45.002918-140.440817h-67.514177c-10.669294 66.4122319-16.634124 101.012304-17.894489 103.800216-1.260366 2.787912-25.2131 12.546729-71.8582026 29.276452z" fill="#ff4133"/><path d="m2.96094256 27.1399147c-1.25265023 3.294367-1.87897535 5.7522608-1.87897535 7.3736814 0 1.9385327.32503832 4.767334.97511496 8.4864039h61.02491153c1.5858212-5.2089047.6703932-8.0210247-2.7462837-8.4363601-3.416677-.4153354-6.2549686-.79035-8.5148748-1.1250438l-28.444202-12.5989119c-.5049668-.2236671-1.0956413.0043714-1.3193084.5093382-.0031947.0072125-.0063039.0144626-.009327.0217487l-1.8550131 4.4708261c-3.1629493 1.4662539-5.7331739 2.1993808-7.710674 2.1993808-1.6366824 0-3.90860265-.6690142-6.81576064-2.0070425l-.00000057.0000012c-1.00339374-.461815-2.19118013-.0227787-2.65299516.980615-.01895292.0411794-.03650031.0829912-.05261177.125363z" fill="#e4e4e4" transform="matrix(.17364818 .98480775 -.98480775 .17364818 42.14841 130.583751)"/></g><g transform="matrix(-.93358043 .35836795 .35836795 .93358043 258.605726 51.074416)"><path d="m207.75 70.5496233 42.721706-5.8176271c8.546074-4.7455291 16.408048-7.9581694 23.585921-9.6379207 2.019928-.0588769 5.233246.6741856.446293 4.6581692-4.786952 3.9839836-9.64399 8.3911013-8.7911 10.5172838s5.304695 1.3351002 6.042183 4.6053497c.491659 2.1801663-6.73335 2.5344215-21.675026 1.0627658l-34.665004 13.72011z" fill="#997659"/><path d="m133.61068 10.453014 18.5883-.3877753c8.147963 40.7102537 35.211253 64.5070169 89.948957 50.8603555l12.005876 52.2933528c-51.293893 11.232428-98.606518-5.522439-112.842901-60.8484151-3.68535-14.3221473-6.914574-29.2801519-7.700232-41.9175179z" fill="#afb9c5" transform="matrix(.9961947 .08715574 -.08715574 .9961947 6.254051 -16.657106)"/><path d="m85.316597 84.7099684c-29.5483889 50.0508566-45.8015097 76.9504266-48.7593621 80.6987096-2.1690246 2.748657-15.3741552 9.693061-24.2945807 13.36853-3.58053777 1.475284-2.86884174 4.488366-1.8428604 5.466516 8.3451024 7.956058 16.1540997 2.305543 25.285791.211975 10.0045522-2.293684 6.6971478 9.484565 14.6007852 7.794326-1.1621674-5.430134-4.3832071-15.759707-.6462468-21.298306 1.6608713-2.4616 21.2655099-29.537843 58.8139158-81.2287295z" fill="#b28b67" transform="matrix(.9781476 -.20791169 .20791169 .9781476 -27.518979 15.301049)"/><path d="m95.21875 120.983957h85.480469c-7.898801-35.4845307-23.298725-66.2771454-23.298725-114.54018231l-28.183003-6.44377469c-20.264772 31.1569845-29.9968937 69.5175409-33.998741 120.983957z" fill="#c5cfd6"/><path d="m95.21875 120.983957h24.997568c-5.94685-23.6563538-5.831876-62.183983.344923-115.58288748-17.963806 31.15698448-21.7950339 64.11647138-25.342491 115.58288748z" fill="#000" fill-opacity=".1"/><path d="m127.437176 0c-41.4913134 37.4444951-68.6770737 90.3749764-81.5572811 158.791444h56.8397561c1.522986-57.608 9.275494-108.45931 31.913774-152.55393095l-5.35541-6.23751305z" fill="#c5cfd6"/></g></g></svg>