<svg height="409" viewBox="0 0 275 409" width="275" xmlns="http://www.w3.org/2000/svg"><g fill="none" fill-rule="evenodd" transform="matrix(-.93969262 -.34202014 .34202014 -.93969262 176.812397 463.292482)"><g transform="translate(69.486009 .269915)"><g fill="#b28b67" transform="translate(53.117647 29.211538)"><path d="m0 68.7884615 9.56480582-44.2884615h6.89838338l6.3015167 44.2884615z"/><path d="m33.9196976 46.421335c-7.103799 1.819089-34.34158219-12.0969025-32.91731417-32.2627342 1.42426803-20.16583173 29.68114927-15.72960569 35.17769777-5.55162555 5.4965484 10.17798015 4.8434155 35.99527085-2.2603836 37.81435975z"/></g><path d="m91.4468632 42.3884232c-.2254954-1.3192777-.7765922-2.7843212-1.2212622-4.0324818-.5732935-1.6090435-1.4408777-3.0597994-2.3956319-4.4270771-1.7974957-2.5741807-3.9538144-4.8987293-6.3345995-6.8280404-4.3487988-3.524067-9.8846093-5.5567627-15.3283988-4.8966423-2.748575.3332709-5.4167418 1.3748228-7.6877192 3.1084416-2.0518028 1.5663412-4.0254025 3.8721072-6.6822505 4.0377794-2.8908693.1801204-5.5408084-2.3547292-7.8592662-3.9202677-2.6140715-1.7649231-5.3949861-3.05097-8.4501996-3.5508764-5.1181882-.8371907-9.9263568.8806957-13.453729 5.0523614-3.7536026 4.4392778-6.4821858 10.9494586-4.0171706 16.8314656.4581938 1.0934047 1.0476571 2.0151974 1.8936326 2.779184.7758572.7005753 1.9608108 1.4459399 2.2753873 2.5653513.3341272 1.1898863-.6639915 2.7249232-1.0510381 3.7985821-.5544778 1.5382475-1.0097316 3.1529098-.8478865 4.8248831.26592 2.7457928 2.0028524 5.3670102 3.8369507 7.1717461 1.8664379 1.8365218 4.163581 2.8896322 6.6171302 3.3750904 1.6382965.3241204 3.3126076.5029566 4.9776578.381271.8265717-.0603613 1.5559774-.2884817 2.3568244-.4698864.7787972-.1764281 1.2140593.0290569 1.8748168.4533512 3.0694723 1.9713714 6.3698791 2.7340737 9.914156 2.4409366 2.9912692-.2475452 6.4389683-.9677057 8.8791407-3.0037727 2.7099144-2.2612978 2.655966-5.379532 2.0182872-8.7111174.6756044.3326288 2.5446883.5385953 1.4277949-.7872643-.442465-.5251103-1.2784446-.7387826-1.8461521-1.0476522-.6610516-.3595986-1.332246-.8243478-1.8455642-1.4109432-2.0726766-2.3685352.0207268-7.1887628 2.6258313-7.9830906 3.8704663-1.1800937 4.7370215 4.2577126 7.5000023 5.6643213 1.5886111.808776 3.2504273-.2966689 4.4406729-1.4253913 1.594344-1.5120804 2.6809557-3.5152376 3.6190991-5.5537126.7727703-1.6787158 1.4918861-3.3810303 2.2795032-5.0513982.3677899-.7800402 1.6410895-2.9851507 1.0016467-3.8671306 2.7722417-.5491907 5.8599418.5952642 8.2474889 2.0961071.9867998.6204682 1.7391373 1.3045084 2.2655384 2.3998395.1127477.2347024.3582349.932388.6664904.9609633.5738816.0532977.359411-.6434248.3028166-.9749298" fill="#191847"/></g><g transform="translate(.273968 174.325707)"><path d="m121.173333 0 45.517286 120.306617 31.904266 88.672462h18.191782l-43.855576-208.979079z" fill="#1f28cf"/><path d="m109.923741 0c-.494775 41.2796932-.137073 96.8560999-1.289887 99.4292659-.768544 1.7154441-24.6731614 21.2606961-71.713854 58.6357551l9.3767147 15.926611c55.8481273-35.974853 85.1998293-56.358784 88.0551063-61.151792 4.282915-7.189511 25.799944-73.3483381 36.994846-112.83984z" fill="#2b44ff"/><g fill="#191847"><path d="m0 38 .95081967-19.95h19.96721313c9.4678851 6.65 21.8285408 12.0333333 37.0819672 16.15v3.8h-36.1311475l-12.36065578-1.9v1.9z" transform="matrix(.64278761 .76604444 -.76604444 .64278761 49.414781 144.444923)"/><path d="m0 38 .95081967-19.95h19.96721313c9.4678851 6.65 21.8285408 12.0333333 37.0819672 16.15v3.8h-36.1311475l-12.36065578-1.9v1.9z" transform="translate(196.906667 188.175732)"/></g></g><path d="m68.0185541 84.240175 28.9541954 23.721406c8.0516985 2.63536 14.7314505 5.738962 20.0392535 9.310806 1.232597 1.248921 2.671852 3.722706-2.674642 3.027556s-11.001416-1.185585-11.838029.608854c-.836612 1.794438 2.297177 4.157429.67049 6.55246-1.084457 1.596687-5.5839201-2.785908-13.4983891-13.147787l-29.1715686-13.946564z" fill="#b28b67" transform="matrix(.99862953951 -.05233594929 .05233594929 .99862953951 132.21879770402 77.16215412186)"/><path d="m4.70104987 8.71350314 10.03585863-4.32645356c17.0878351 33.84092052 40.9652265 65.94122742 78.4070325 91.54390712l-7.3332382 15.6790483c-32.2867594-15.4228251-62.5810938-26.9474359-76.75204698-53.0888379-4.75613822-8.7737302-3.72651498-38.8745693-4.35760595-49.80766396z" fill="#69a1ac" transform="matrix(.99984769628 .01745240727 -.01745240727 .99984769628 135.4134854697 74.43239542748)"/><path d="m66.9817022 98.7867742c-2.0860116 1.0821644-5.9998591-6.4816335-3.9138476-7.5637979 5.9071289-3.0644529 12.9719835-3.1334473 20.9937604-.4271437 2.2263866.7511152 3.4231097 3.1671705 2.672956 5.3964105-.7501537 2.2292401-3.1631164 3.4274971-5.389503 2.6763819-5.9922552-2.0216048-10.7131093-1.9755016-14.3633658-.0818508z" fill="#69a1ac" transform="matrix(-.99756405 .06975647 -.06975647 -.99756405 292.64484347559 255.88378523288)"/><g transform="matrix(.99939083 .0348995 -.0348995 .99939083 19.37359 62.938073)"><path d="m54.5866663 84.9257883c-16.1274338 35.7303547-25.4840176 55.2381547-28.0697512 58.5233987-1.8961459 2.409104-13.4362873 8.498554-21.23158431 11.72225-3.12892651 1.293948-2.50824266 3.933647-1.61219589 4.790285 7.2882439 6.9677 14.1132137 2.01395 22.0925006.176187 8.7419942-2.013428 5.8478247 8.307552 12.7539901 6.823636-1.0133564-4.757275-3.8237339-13.806507-.556607-18.660663 1.4520564-2.157403 12.5041211-22.083542 33.1561941-59.7784165z" fill="#b28b67" transform="matrix(.99756405 -.06975647 .06975647 .99756405 -8.700288 2.890238)"/><g fill="#89c5cc"><path d="m99.6905361 5.91821048c-36.2609182 32.16340392-57.039608 78.21843542-62.3360696 138.16509452l18.4957839 2.079393c9.7185333-51.1705903 26.8663731-81.2568973 51.4435196-90.2589207l-2.574628-50.87247757z" transform="matrix(.99026807 .1391731 -.1391731 .99026807 11.224922 -9.329867)"/><path d="m30.8549831 131.214171c-2.0860116 1.082164-5.9998592-6.481634-3.9138476-7.563798 5.9071288-3.064453 12.9719835-3.133447 20.9937603-.427144 2.2263866.751116 3.4231098 3.167171 2.672956 5.396411-.7501537 2.22924-3.1631164 3.427497-5.389503 2.676382-5.9922552-2.021605-10.7131093-1.975502-14.3633657-.081851z"/></g></g><g transform="translate(63.804035 77.147272)"><path d="m40.6484375 107.818315c29.7190426 3.268985 53.1111892 3.268985 70.1764395 0 2.11427-.405005 2.021422-9.5308766 1.040932-12.023238-15.2687833-38.8125543-25.3127112-67.2251639-25.3127112-94.18348979-2.8016296 1.46530691-7.7047455 1.68490146-14.7093478.65878367-18.8247625 27.78142162-27.4778354 59.65742432-31.1953125 105.54794412z" fill="#191847"/><path d="m.8345341 213.914439c38.9932875-15.596099 71.4892992 3.925035 99.5487609-2.349167 15.18082-78.148067-28.539545-169.6524856-25.3742373-211.565272h-9.2799834c-5.2126081 12.498623-19.0911233 31.2938077-25.9012527 50.1735065-5.6103339 15.5535101 1.6594748 31.4913315-.9832888 47.870723-5.8711286 36.3882385-36.34478726 79.7516005-38.0099987 115.8702095z" fill="#89c5cc"/><g fill="#5c63ab"><ellipse cx="79.40625" cy="83.294118" rx="3.78125" ry="3.786096"/><ellipse cx="84.132813" cy="105.064171" rx="3.78125" ry="3.786096"/><ellipse cx="85.078125" cy="126.834225" rx="3.78125" ry="3.786096"/></g><path d="m68.1624751.94652406-4.8770139 15.01702564 9.8212231 11.2575771-8.8759106 8.8466521 21.4733855 36.814574-26.2595188-36.741024 8.7178347-8.9202021-8.7178347-9.9485219z" fill="#000" fill-opacity=".1"/><path d="m38.2839131 102.224818c2.3497598.000515 4.2544875 1.905243 4.2550019 4.255003l.0006238 2.849709c.0005141 2.34843-1.9028473 4.252624-4.2512766 4.253139-.000621 0-.0012419 0-.0018628 0-2.3497598-.000515-4.2544875-1.905244-4.2550019-4.255004l-.0006238-2.849709c-.0005141-2.348429 1.9028473-4.252624 4.2512766-4.253138z" fill="#89c5cc" transform="matrix(.98480775 .17364818 -.17364818 .98480775 19.318926 -5.008847)"/></g></g></svg>